<?xml version="1.0" ?><!DOCTYPE svg  PUBLIC '-//W3C//DTD SVG 1.1//EN'  'http://www.w3.org/Graphics/SVG/1.1/DTD/svg11.dtd'><svg enable-background="new 0 0 256 256" height="256px" id="Layer_1" version="1.1" viewBox="0 0 256 256" width="256px" xml:space="preserve" xmlns="http://www.w3.org/2000/svg" xmlns:xlink="http://www.w3.org/1999/xlink"><g><g><g><linearGradient gradientUnits="userSpaceOnUse" id="SVGID_1_" x1="86.8282" x2="174.3633" y1="87.689" y2="173.5167"><stop offset="0" style="stop-color:#F9ED32"/><stop offset="1" style="stop-color:#FBB040"/></linearGradient><circle cx="128" cy="128.058" fill="url(#SVGID_1_)" r="57.005"/><linearGradient gradientUnits="userSpaceOnUse" id="SVGID_2_" x1="121.6817" x2="170.3452" y1="120.4389" y2="163.8409"><stop offset="0" style="stop-color:#FAD238"/><stop offset="1" style="stop-color:#FCF79D"/></linearGradient><path d="M173.211,98.764c3.58,7.458,5.588,15.814,5.588,24.639c0,31.483-25.521,57.005-57.005,57.005      c-3.285,0-6.498-0.293-9.632-0.827c5.011,1.543,10.329,2.378,15.838,2.378c29.721,0,53.902-24.18,53.902-53.902      C181.902,117.262,178.698,107.205,173.211,98.764z" fill="url(#SVGID_2_)"/><linearGradient gradientUnits="userSpaceOnUse" id="SVGID_3_" x1="89.7655" x2="128.5178" y1="92.898" y2="132.6101"><stop offset="0" style="stop-color:#FCF79D"/><stop offset="1" style="stop-color:#FAD238"/></linearGradient><circle cx="108.847" cy="112.452" fill="url(#SVGID_3_)" r="27.909"/><g><radialGradient cx="126.5652" cy="129.0242" gradientUnits="userSpaceOnUse" id="SVGID_4_" r="117.7615"><stop offset="0.3515" style="stop-color:#FAD238"/><stop offset="1" style="stop-color:#FCF79D"/></radialGradient><path d="M128,64.847c2.449,0,4.859,0.155,7.235,0.427L128,13.108l-7.235,52.165       C123.141,65.002,125.551,64.847,128,64.847z" fill="url(#SVGID_4_)"/><radialGradient cx="126.5652" cy="129.0245" gradientUnits="userSpaceOnUse" id="SVGID_5_" r="117.7621"><stop offset="0.3515" style="stop-color:#FAD238"/><stop offset="1" style="stop-color:#FCF79D"/></radialGradient><path d="M128,191.268c-2.448,0-4.859-0.155-7.235-0.427L128,243.007l7.235-52.165       C132.859,191.114,130.449,191.268,128,191.268z" fill="url(#SVGID_5_)"/></g><g><radialGradient cx="126.5651" cy="129.0238" gradientUnits="userSpaceOnUse" id="SVGID_6_" r="117.7606"><stop offset="0.3515" style="stop-color:#FAD238"/><stop offset="1" style="stop-color:#FCF79D"/></radialGradient><path d="M118.648,65.543L103.47,36.508l1.373,32.752C109.229,67.526,113.849,66.259,118.648,65.543z" fill="url(#SVGID_6_)"/><radialGradient cx="126.5652" cy="129.0249" gradientUnits="userSpaceOnUse" id="SVGID_7_" r="117.7613"><stop offset="0.3515" style="stop-color:#FAD238"/><stop offset="1" style="stop-color:#FCF79D"/></radialGradient><path d="M137.352,190.572l15.179,29.036l-1.373-32.752C146.771,188.589,142.151,189.857,137.352,190.572       z" fill="url(#SVGID_7_)"/></g><g><radialGradient cx="105.9952" cy="-194.7324" gradientTransform="matrix(0.866 -0.5 0.5 0.866 132.8165 351.2479)" gradientUnits="userSpaceOnUse" id="SVGID_8_" r="117.7648"><stop offset="0.3515" style="stop-color:#FAD238"/><stop offset="1" style="stop-color:#FCF79D"/></radialGradient><path d="M96.395,73.316c2.12-1.224,4.285-2.296,6.479-3.249L70.526,28.508l19.817,48.794       C92.264,75.879,94.274,74.54,96.395,73.316z" fill="url(#SVGID_8_)"/><radialGradient cx="105.9932" cy="-194.7325" gradientTransform="matrix(0.866 -0.5 0.5 0.866 132.8165 351.2479)" gradientUnits="userSpaceOnUse" id="SVGID_9_" r="117.7644"><stop offset="0.3515" style="stop-color:#FAD238"/><stop offset="1" style="stop-color:#FCF79D"/></radialGradient><path d="M159.606,182.8c-2.121,1.224-4.286,2.295-6.479,3.248l32.347,41.559l-19.817-48.794       C163.736,180.237,161.726,181.576,159.606,182.8z" fill="url(#SVGID_9_)"/></g><g><radialGradient cx="105.9934" cy="-194.7322" gradientTransform="matrix(0.866 -0.5 0.5 0.866 132.8165 351.2479)" gradientUnits="userSpaceOnUse" id="SVGID_10_" r="117.7654"><stop offset="0.3515" style="stop-color:#FAD238"/><stop offset="1" style="stop-color:#FCF79D"/></radialGradient><path d="M88.644,78.595L60.982,61.038l17.564,27.678C81.477,85.021,84.845,81.614,88.644,78.595z" fill="url(#SVGID_10_)"/><radialGradient cx="105.9936" cy="-194.7327" gradientTransform="matrix(0.866 -0.5 0.5 0.866 132.8165 351.2479)" gradientUnits="userSpaceOnUse" id="SVGID_11_" r="117.7654"><stop offset="0.3515" style="stop-color:#FAD238"/><stop offset="1" style="stop-color:#FCF79D"/></radialGradient><path d="M167.356,177.521l27.662,17.556l-17.564-27.678       C174.521,171.093,171.155,174.502,167.356,177.521z" fill="url(#SVGID_11_)"/></g><g><radialGradient cx="250.3246" cy="-485.8966" gradientTransform="matrix(0.5 -0.866 0.866 0.5 423.7426 589.5143)" gradientUnits="userSpaceOnUse" id="SVGID_12_" r="117.7636"><stop offset="0.3515" style="stop-color:#FAD238"/><stop offset="1" style="stop-color:#FCF79D"/></radialGradient><path d="M73.259,96.452c1.223-2.12,2.562-4.131,3.986-6.053L28.451,70.583l41.559,32.348       C70.962,100.738,72.033,98.573,73.259,96.452z" fill="url(#SVGID_12_)"/><radialGradient cx="250.3272" cy="-485.8947" gradientTransform="matrix(0.5 -0.866 0.866 0.5 423.7426 589.5143)" gradientUnits="userSpaceOnUse" id="SVGID_13_" r="117.7631"><stop offset="0.3515" style="stop-color:#FAD238"/><stop offset="1" style="stop-color:#FCF79D"/></radialGradient><path d="M182.742,159.663c-1.224,2.121-2.564,4.131-3.986,6.052l48.793,19.817l-41.559-32.349       C185.038,155.377,183.967,157.543,182.742,159.663z" fill="url(#SVGID_13_)"/></g><g><radialGradient cx="250.3245" cy="-485.8979" gradientTransform="matrix(0.5 -0.866 0.866 0.5 423.7426 589.5143)" gradientUnits="userSpaceOnUse" id="SVGID_14_" r="117.7611"><stop offset="0.3515" style="stop-color:#FAD238"/><stop offset="1" style="stop-color:#FCF79D"/></radialGradient><path d="M69.185,104.899l-32.733-1.373L65.5,118.715C66.192,114.049,67.405,109.414,69.185,104.899z" fill="url(#SVGID_14_)"/><radialGradient cx="250.3264" cy="-485.8961" gradientTransform="matrix(0.5 -0.866 0.866 0.5 423.7426 589.5143)" gradientUnits="userSpaceOnUse" id="SVGID_15_" r="117.7636"><stop offset="0.3515" style="stop-color:#FAD238"/><stop offset="1" style="stop-color:#FCF79D"/></radialGradient><path d="M186.815,151.217l32.735,1.373l-29.05-15.188C189.806,142.067,188.595,146.702,186.815,151.217       z" fill="url(#SVGID_15_)"/></g><g><radialGradient cx="520.3406" cy="-665.8594" gradientTransform="matrix(0 -1 1 0 794.8259 649.8359)" gradientUnits="userSpaceOnUse" id="SVGID_16_" r="117.7615"><stop offset="0.3515" style="stop-color:#FAD238"/><stop offset="1" style="stop-color:#FCF79D"/></radialGradient><path d="M64.791,128.057c-0.002-2.448,0.153-4.858,0.426-7.235l-52.165,7.235l52.165,7.236       C64.944,132.917,64.789,130.506,64.791,128.057z" fill="url(#SVGID_16_)"/><radialGradient cx="520.3403" cy="-665.8591" gradientTransform="matrix(0 -1 1 0 794.8259 649.8359)" gradientUnits="userSpaceOnUse" id="SVGID_17_" r="117.7614"><stop offset="0.3515" style="stop-color:#FAD238"/><stop offset="1" style="stop-color:#FCF79D"/></radialGradient><path d="M191.211,128.058c0.001,2.449-0.155,4.859-0.426,7.234l52.164-7.233l-52.165-7.235       C191.056,123.199,191.212,125.61,191.211,128.058z" fill="url(#SVGID_17_)"/></g><g><radialGradient cx="520.3416" cy="-665.8592" gradientTransform="matrix(0 -1 1 0 794.8259 649.8359)" gradientUnits="userSpaceOnUse" id="SVGID_18_" r="117.762"><stop offset="0.3515" style="stop-color:#FAD238"/><stop offset="1" style="stop-color:#FCF79D"/></radialGradient><path d="M65.485,137.41l-29.033,15.177l32.75-1.37C67.468,146.83,66.202,142.209,65.485,137.41z" fill="url(#SVGID_18_)"/><radialGradient cx="520.3422" cy="-665.8594" gradientTransform="matrix(0 -1 1 0 794.8259 649.8359)" gradientUnits="userSpaceOnUse" id="SVGID_19_" r="117.7617"><stop offset="0.3515" style="stop-color:#FAD238"/><stop offset="1" style="stop-color:#FCF79D"/></radialGradient><path d="M190.515,118.706l29.035-15.178l-32.752,1.372C188.53,109.287,189.8,113.907,190.515,118.706z" fill="url(#SVGID_19_)"/></g><g><radialGradient cx="844.4798" cy="-686.2346" gradientTransform="matrix(-0.5 -0.866 0.866 -0.5 1146.0736 517.0182)" gradientUnits="userSpaceOnUse" id="SVGID_20_" r="117.7634"><stop offset="0.3515" style="stop-color:#FAD238"/><stop offset="1" style="stop-color:#FCF79D"/></radialGradient><path d="M73.259,159.661c-1.226-2.119-2.297-4.284-3.248-6.478l-41.559,32.348l48.794-19.816       C75.821,163.794,74.482,161.783,73.259,159.661z" fill="url(#SVGID_20_)"/><radialGradient cx="844.4781" cy="-686.2338" gradientTransform="matrix(-0.5 -0.866 0.866 -0.5 1146.0736 517.0182)" gradientUnits="userSpaceOnUse" id="SVGID_21_" r="117.7641"><stop offset="0.3515" style="stop-color:#FAD238"/><stop offset="1" style="stop-color:#FCF79D"/></radialGradient><path d="M182.742,96.452c1.226,2.12,2.295,4.286,3.249,6.478l41.558-32.346l-48.794,19.817       C180.179,92.321,181.52,94.332,182.742,96.452z" fill="url(#SVGID_21_)"/></g><g><radialGradient cx="844.4808" cy="-686.2347" gradientTransform="matrix(-0.5 -0.866 0.866 -0.5 1146.0736 517.0182)" gradientUnits="userSpaceOnUse" id="SVGID_22_" r="117.7642"><stop offset="0.3515" style="stop-color:#FAD238"/><stop offset="1" style="stop-color:#FCF79D"/></radialGradient><path d="M78.536,167.415l-17.555,27.66l27.676-17.561C84.964,174.58,81.556,171.212,78.536,167.415z" fill="url(#SVGID_22_)"/><radialGradient cx="844.4789" cy="-686.2339" gradientTransform="matrix(-0.5 -0.866 0.866 -0.5 1146.0736 517.0182)" gradientUnits="userSpaceOnUse" id="SVGID_23_" r="117.7646"><stop offset="0.3515" style="stop-color:#FAD238"/><stop offset="1" style="stop-color:#FCF79D"/></radialGradient><path d="M177.464,88.702L195.02,61.04l-27.677,17.564C171.036,81.537,174.445,84.903,177.464,88.702z" fill="url(#SVGID_23_)"/></g><g><radialGradient cx="1135.6201" cy="-542.3275" gradientTransform="matrix(-0.866 -0.5 0.5 -0.866 1384.3395 226.0924)" gradientUnits="userSpaceOnUse" id="SVGID_24_" r="117.7666"><stop offset="0.3515" style="stop-color:#FAD238"/><stop offset="1" style="stop-color:#FCF79D"/></radialGradient><path d="M96.395,182.798c-2.121-1.222-4.132-2.561-6.053-3.986l-19.817,48.793l32.348-41.558       C100.68,185.096,98.515,184.024,96.395,182.798z" fill="url(#SVGID_24_)"/><radialGradient cx="1135.6221" cy="-542.3293" gradientTransform="matrix(-0.866 -0.5 0.5 -0.866 1384.3395 226.0924)" gradientUnits="userSpaceOnUse" id="SVGID_25_" r="117.7647"><stop offset="0.3515" style="stop-color:#FAD238"/><stop offset="1" style="stop-color:#FCF79D"/></radialGradient><path d="M159.606,73.315c2.121,1.224,4.13,2.564,6.052,3.986l19.817-48.792l-32.348,41.559       C155.32,71.02,157.486,72.09,159.606,73.315z" fill="url(#SVGID_25_)"/></g><g><radialGradient cx="1135.6208" cy="-542.3282" gradientTransform="matrix(-0.866 -0.5 0.5 -0.866 1384.3395 226.0924)" gradientUnits="userSpaceOnUse" id="SVGID_26_" r="117.7652"><stop offset="0.3515" style="stop-color:#FAD238"/><stop offset="1" style="stop-color:#FCF79D"/></radialGradient><path d="M104.842,186.874l-1.373,32.731l15.186-29.046       C113.991,189.866,109.356,188.652,104.842,186.874z" fill="url(#SVGID_26_)"/><radialGradient cx="1135.6217" cy="-542.3286" gradientTransform="matrix(-0.866 -0.5 0.5 -0.866 1384.3395 226.0924)" gradientUnits="userSpaceOnUse" id="SVGID_27_" r="117.7632"><stop offset="0.3515" style="stop-color:#FAD238"/><stop offset="1" style="stop-color:#FCF79D"/></radialGradient><path d="M151.159,69.243l1.373-32.734l-15.188,29.049C142.011,66.252,146.645,67.462,151.159,69.243z" fill="url(#SVGID_27_)"/></g></g></g></g></svg>