<?xml version="1.0" ?><svg id="Layer_1" style="enable-background:new 0 0 64 64;" version="1.1" viewBox="0 0 64 64" xml:space="preserve" xmlns="http://www.w3.org/2000/svg" xmlns:xlink="http://www.w3.org/1999/xlink"><g><g><path d="M60.17,53.64H47.01c-0.54,0-0.97-0.43-0.97-0.97s0.43-0.97,0.97-0.97h13.15c0.5,0,0.98-0.2,1.34-0.56    c0.36-0.36,0.56-0.83,0.56-1.34c0-1.04-0.85-1.89-1.89-1.89H45.63c-0.54,0-0.97-0.43-0.97-0.97s0.43-0.97,0.97-0.97h14.53    c2.11,0,3.83,1.72,3.83,3.83c0,1.02-0.4,1.98-1.13,2.71C62.15,53.24,61.19,53.64,60.17,53.64z"/></g><g><path d="M40.81,53.64H3.83C1.72,53.64,0,51.92,0,49.81c0-1.02,0.4-1.98,1.12-2.71c0.73-0.73,1.69-1.13,2.71-1.13h36.45    c0.54,0,0.97,0.43,0.97,0.97s-0.43,0.97-0.97,0.97H3.83c-0.5,0-0.98,0.2-1.34,0.56c-0.36,0.36-0.56,0.83-0.56,1.34    c0,1.04,0.85,1.89,1.89,1.89h36.98c0.54,0,0.97,0.43,0.97,0.97S41.34,53.64,40.81,53.64z"/></g><g><path d="M46.9,61.19c-1.27,0-2.43-0.65-3.1-1.73l-4.36-7.16c-0.42-0.69-0.6-1.52-0.5-2.32l0.69-5.82H6.76    c-1.09,0-1.97-0.88-1.97-1.97v-3.78c0-0.99,0.74-1.83,1.73-1.96l37.18-4.64c2.26-0.23,4.27,1.42,4.5,3.65l0.49,5.84    c0.07,0.72-0.17,1.45-0.66,2c-0.29,0.32-0.65,0.56-1.06,0.71l-0.68,5.59l3.65,5.99c1.03,1.69,0.61,3.86-0.96,4.94    C48.35,60.97,47.64,61.19,46.9,61.19z M44.12,33.73c-0.07,0-0.14,0-0.21,0.01L6.75,38.38l-0.03,3.81l34,0.03    c0.28,0,0.54,0.12,0.73,0.33c0.18,0.21,0.27,0.48,0.24,0.76l-0.82,6.91c-0.05,0.38,0.04,0.76,0.24,1.08l4.35,7.16    c0.48,0.79,1.59,1.06,2.41,0.49l0,0c0.71-0.49,0.89-1.54,0.41-2.34l-3.83-6.28c-0.11-0.19-0.16-0.41-0.13-0.62l0.8-6.63    c0.06-0.49,0.47-0.85,0.96-0.85c0.26,0,0.42-0.14,0.49-0.22c0.07-0.08,0.2-0.26,0.17-0.52l-0.49-5.84    C46.14,34.55,45.2,33.73,44.12,33.73z"/></g><g><g><path d="M14.69,37.38c-0.04,0-0.07,0-0.11-0.01c-0.53-0.06-0.92-0.54-0.86-1.07c0.64-5.68,2.73-16.34,9.58-23.99     c1.19-1.33,3.74-1.96,6.11-0.5c0.15,0.09,4.13,2.45,4.13,6.33l2.7,4.47l5.55,1.12c1.96,0.4,3.23,2.31,2.83,4.27     c-0.33,1.66-1.47,2.58-3.2,2.58c-0.24,0-0.48-0.03-0.7-0.07l-7.39-1.11c-1.01-0.2-1.84-0.77-2.39-1.62l-1.45-2.29     c-1.51,2.58-2.56,5.81-3.13,9.64c-0.08,0.53-0.57,0.89-1.1,0.82c-0.53-0.08-0.89-0.57-0.82-1.1c0.71-4.78,2.15-8.72,4.26-11.72     c0.19-0.26,0.5-0.4,0.82-0.41c0.32,0.01,0.62,0.18,0.8,0.45l2.26,3.57c0.25,0.39,0.64,0.66,1.08,0.75l7.37,1.1     c0.14,0.03,0.26,0.04,0.39,0.04c0.81,0,1.15-0.27,1.3-1.02c0.18-0.91-0.41-1.81-1.31-1.99l-5.97-1.2     c-0.27-0.05-0.5-0.22-0.64-0.45l-3.07-5.08c-0.1-0.17-0.15-0.36-0.14-0.55c0.15-2.87-3.15-4.85-3.18-4.87     c-1.72-1.06-3.23-0.35-3.66,0.13c-6.49,7.25-8.48,17.46-9.1,22.91C15.59,37.01,15.18,37.38,14.69,37.38z"/></g></g><g><path d="M35.8,12.88c-3.29,0-5.97-2.68-5.97-5.98s2.68-5.97,5.97-5.97c3.29,0,5.97,2.68,5.97,5.97S39.09,12.88,35.8,12.88z     M35.8,2.87c-2.23,0-4.04,1.81-4.04,4.04c0,2.23,1.81,4.04,4.04,4.04c2.23,0,4.03-1.81,4.03-4.04C39.84,4.68,38.03,2.87,35.8,2.87    z"/></g><g><path d="M56.02,43.63c-3.27,0-5.92-2.66-5.92-5.92c0-3.27,2.66-5.92,5.92-5.92c3.27,0,5.92,2.66,5.92,5.92    C61.95,40.98,59.29,43.63,56.02,43.63z M56.02,33.73c-2.2,0-3.98,1.79-3.98,3.98c0,2.2,1.79,3.98,3.98,3.98    c2.2,0,3.98-1.79,3.98-3.98C60.01,35.52,58.22,33.73,56.02,33.73z"/></g><g><g><path d="M57.45,63.07c-0.54,0-0.97-0.43-0.97-0.97v-9.43c0-0.54,0.43-0.97,0.97-0.97s0.97,0.43,0.97,0.97v9.43     C58.42,62.64,57.98,63.07,57.45,63.07z"/></g><g><path d="M6.55,63.07c-0.54,0-0.97-0.43-0.97-0.97v-9.43c0-0.54,0.43-0.97,0.97-0.97s0.97,0.43,0.97,0.97v9.43     C7.52,62.64,7.09,63.07,6.55,63.07z"/></g></g></g></svg>