<?xml version="1.0" ?><!DOCTYPE svg  PUBLIC '-//W3C//DTD SVG 1.1//EN'  'http://www.w3.org/Graphics/SVG/1.1/DTD/svg11.dtd'><svg enable-background="new 0 0 256 256" height="256px" id="Layer_1" version="1.1" viewBox="0 0 256 256" width="256px" xml:space="preserve" xmlns="http://www.w3.org/2000/svg" xmlns:xlink="http://www.w3.org/1999/xlink"><g><g><g><g><path d="M142.153,157.934c-10.094,0-19.639-5.488-24.185-13.255c-2.347,1-4.892,1.515-7.559,1.515       c-9.021,0-18.112-6.079-21.618-14.455c-2.526-6.036-1.929-12.388,1.559-18.055c-9.396-6.515-11.308-16.164-9.802-23.158       c2.055-9.539,10.088-15.948,19.991-15.948c0.029,0,0.058,0,0.086,0c-0.117-4.642,1.223-9.039,3.962-12.8       c4.696-6.448,13.37-10.612,22.097-10.612c2.862,0,5.595,0.455,8.076,1.321c3.794-10.979,15.167-15.976,26.227-15.976       c10.864,0,22.282,4.848,26.692,14.194c2.585-1.033,5.414-1.567,8.4-1.567c8.852,0,17.591,4.682,22.265,11.927       c2.677,4.148,3.82,8.785,3.408,13.533c0.256-0.009,0.512-0.015,0.767-0.015c8.147,0,15.733,4.715,20.292,12.612       c4.911,8.506,5.335,18.767,1.077,26.136c-3.12,5.406-8.462,8.903-15.35,10.155c0.8,3.682,0.309,7.536-1.511,11.197       c-3.761,7.57-12.333,12.854-20.847,12.854c-2.099,0-4.12-0.324-6.017-0.961c-0.537,0.864-1.183,1.715-1.938,2.545       c-4.824,5.318-13.044,8.755-20.942,8.755c-4.758,0-11.274-1.203-17.249-6.388C153.531,156.725,146.891,157.934,142.153,157.934       z" fill="#81BAE8"/><linearGradient gradientUnits="userSpaceOnUse" id="SVGID_1_" x1="127.3577" x2="192.3608" y1="32.5732" y2="162.5792"><stop offset="0" style="stop-color:#D6EEF8"/><stop offset="0.2851" style="stop-color:#D2ECF7"/><stop offset="0.5511" style="stop-color:#C7E5F6"/><stop offset="0.8087" style="stop-color:#B4DAF3"/><stop offset="1" style="stop-color:#A1CFF0"/></linearGradient><path d="M215.37,80.658c8.929-19.724-17.441-34.261-30.521-22.839       c-1.941-21.3-45.567-23.715-46.729,1.848c-11.338-9.882-38.386,0.118-31.859,20.382c-21.527-5.942-31.027,22.261-8.912,32.249       c-16.708,16.954,9.114,37.885,22.832,25.503c2.873,12.945,24.774,23.436,40.017,7.203c13.997,16.903,38.101,3.958,37.208-5.194       c12.238,10.085,34.595-6.694,24.156-20.473C256.482,120.316,241.949,70.277,215.37,80.658z" fill="url(#SVGID_1_)"/><path d="M176.544,101.486c-0.276-4.948-1.839-9.724-4.62-14.036c-6.117-9.485-17.535-15.612-29.088-15.612       c-2.732,0-5.371,0.336-7.889,1.003c-4.561-7.073-12.182-11.585-20.223-13.858c-6.942,3.918-11.612,11.294-8.464,21.067       c-21.527-5.942-31.027,22.261-8.912,32.249c-16.708,16.954,9.114,37.885,22.832,25.503       c2.873,12.945,24.774,23.436,40.017,7.203c13.997,16.903,38.101,3.958,37.208-5.194c2.261,1.864,4.868,2.806,7.55,3.021       c1.486-8.067-0.059-17.103-4.586-24.945C194.949,108.498,186.2,102.534,176.544,101.486z" fill="#A1CFF0"/></g><linearGradient gradientUnits="userSpaceOnUse" id="SVGID_2_" x1="155.5129" x2="182.839" y1="47.5592" y2="100.6311"><stop offset="0" style="stop-color:#FFFFFF"/><stop offset="1" style="stop-color:#D6EEF8"/></linearGradient><path d="M169.387,84.049c3.301-0.512,7.398-0.455,12.489,0.473c-7.458-5.182-13.064-6.142-17.249-5.021      C166.362,80.867,167.964,82.389,169.387,84.049z" fill="url(#SVGID_2_)"/><path d="M123.917,128.661c16.617,11.718,24.164-1.339,25.256-7.352c17.767,21.245,30.488,0.151,33.67-3.697      c18.58,13.894,27.786-2.342,30.465-7.197c0.836,5.858-7.686,26.085-29.28,10.851c-3.027,8.9-19.599,21.455-34.33,5.218      C148.861,131.674,138.315,145.734,123.917,128.661z" fill="#A1CFF0"/><linearGradient gradientUnits="userSpaceOnUse" id="SVGID_3_" x1="151.7707" x2="190.3713" y1="31.8219" y2="98.1196"><stop offset="0" style="stop-color:#FFFFFF"/><stop offset="1" style="stop-color:#D6EEF8"/></linearGradient><path d="M212.546,82.937c5.843-19.309-11.739-31.227-29.317-21.349      c-2.386-11.976-10.744-17.485-21.535-17.852c-9.956-0.342-20.927,7.046-22.099,18.873c-7.148-4.409-14.826-4.324-20.815-2.242      c1.439,0.561,2.85,1.188,4.214,1.906c4.771-1.112,10.791-0.873,17.326,1.521c11.829-26.894,38.615-14.145,41.853,0.585      c20.426-8.285,33.486,4.476,28.967,19.876c14.118-2.461,23.767,5.2,26.608,13.13C238.417,91.892,229.955,79.028,212.546,82.937z      " fill="url(#SVGID_3_)"/></g><g><g><path d="M80.358,201.061c-11.689,0-22.723-6.479-27.712-15.564c-2.792,1.294-5.852,1.964-9.065,1.964       c-10.168,0-20.415-6.852-24.365-16.291c-2.918-6.973-2.112-14.33,2.135-20.845c-11.097-7.352-13.37-18.458-11.646-26.464       c2.305-10.706,11.323-17.897,22.439-17.897c0.279,0,0.559,0.006,0.839,0.015c-0.4-6.715,2.003-11.791,4.449-15.148       C42.74,83.546,52.555,78.84,62.437,78.84c3.511,0,6.844,0.603,9.824,1.752c4.041-12.876,17.162-18.727,29.918-18.727       c12.574,0,25.797,5.694,30.548,16.664c3.08-1.343,6.491-2.036,10.109-2.036c10.012,0,19.894,5.291,25.176,13.482       c3.167,4.909,4.424,10.424,3.742,16.058c0.573-0.039,1.144-0.058,1.714-0.058c9.171,0,17.721,5.324,22.87,14.239       c5.56,9.633,6.051,21.23,1.25,29.548c-3.617,6.264-9.914,10.248-18.05,11.536c1.132,4.33,0.647,8.906-1.506,13.239       c-4.171,8.391-14.051,14.482-23.492,14.482c-2.556,0-5.012-0.43-7.295-1.273c-0.651,1.136-1.474,2.258-2.467,3.352       c-5.456,6.015-14.767,9.903-23.718,9.903c-5.5,0-13.083-1.424-19.964-7.633C93.567,199.634,85.838,201.061,80.358,201.061z" fill="#7EAEC6"/><linearGradient gradientUnits="userSpaceOnUse" id="SVGID_4_" x1="63.2152" x2="138.5257" y1="56.5593" y2="207.18"><stop offset="0" style="stop-color:#CBDFE8"/><stop offset="0.2391" style="stop-color:#C7DDE6"/><stop offset="0.4622" style="stop-color:#BCD5E1"/><stop offset="0.6789" style="stop-color:#A9C9D9"/><stop offset="0.8904" style="stop-color:#8FB9CD"/><stop offset="1" style="stop-color:#7EAEC6"/></linearGradient><path d="M165.185,112.27c10.344-22.851-20.206-39.691-35.361-26.461       c-2.25-24.682-52.792-27.479-54.139,2.142c-13.136-11.452-44.473,0.136-36.912,23.609       c-24.941-6.882-35.946,25.794-10.324,37.367C9.091,168.57,39.008,192.819,54.9,178.477       c3.329,14.997,28.703,27.152,46.362,8.345c16.217,19.582,44.144,4.582,43.109-6.018c14.177,11.679,40.08-7.758,27.986-23.721       C212.816,158.216,195.978,100.243,165.185,112.27z" fill="url(#SVGID_4_)"/></g><linearGradient gradientTransform="matrix(0.9806 -0.196 0.196 0.9806 27.8173 190.4809)" gradientUnits="userSpaceOnUse" id="SVGID_5_" x1="43.3587" x2="88.3006" y1="-101.4588" y2="-24.2698"><stop offset="0" style="stop-color:#FFFFFF"/><stop offset="1" style="stop-color:#D1E3EB"/></linearGradient><path d="M58.362,142.964c5.285-33.327,34.703-14.776,34.703-14.776s5.753-30.591,33.314-11.442      c-31.182-5.676-30.277,16.736-30.277,16.736S71.237,120.683,58.362,142.964z" fill="url(#SVGID_5_)"/><path d="M59.229,167.886c19.252,13.576,27.995-1.552,29.262-8.515c20.583,24.612,35.323,0.176,39.008-4.285      c21.527,16.097,32.194-2.715,35.297-8.339c0.97,6.788-8.904,30.221-33.923,12.573c-3.508,10.312-22.708,24.858-39.774,6.045      C88.129,171.377,75.911,187.667,59.229,167.886z" fill="#7EAEC6"/><linearGradient gradientUnits="userSpaceOnUse" id="SVGID_6_" x1="67.9757" x2="112.9153" y1="68.7369" y2="145.9221"><stop offset="0" style="stop-color:#FFFFFF"/><stop offset="1" style="stop-color:#D1E3EB"/></linearGradient><path d="M161.912,114.91c6.77-22.373-13.602-36.176-33.965-24.733      c-2.765-13.873-12.449-20.255-24.95-20.685c-11.535-0.394-24.245,8.164-25.603,21.87c-15.514-9.573-33.186-0.876-36.105,7.094      c-2.643,7.215,0.905,15.652,0.905,15.652s-11.465-3.464-18.841,1.154c-6.177,3.87-9.398,15.749-1.45,26.109      c-9.282-30.085,21.361-26.236,21.361-26.236s-3.048-11.8,6.338-20.042c5.439-4.776,16.248-6.897,28.632-2.36      c13.705-31.158,44.739-16.385,48.489,0.682c23.665-9.6,38.797,5.185,33.561,23.027c16.357-2.852,27.536,6.024,30.827,15.212      C191.887,125.286,182.082,110.38,161.912,114.91z" fill="url(#SVGID_6_)"/></g></g></g></svg>