<?xml version="1.0" ?><!DOCTYPE svg  PUBLIC '-//W3C//DTD SVG 1.1//EN'  'http://www.w3.org/Graphics/SVG/1.1/DTD/svg11.dtd'><svg enable-background="new 0 0 256 256" height="256px" id="Layer_1" version="1.1" viewBox="0 0 256 256" width="256px" xml:space="preserve" xmlns="http://www.w3.org/2000/svg" xmlns:xlink="http://www.w3.org/1999/xlink"><g><g><g><linearGradient gradientUnits="userSpaceOnUse" id="SVGID_1_" x1="51.8205" x2="98.4391" y1="48.5139" y2="94.2231"><stop offset="0" style="stop-color:#F9ED32"/><stop offset="1" style="stop-color:#FBB040"/></linearGradient><path d="M104.106,70.014c0,16.766-13.591,30.359-30.361,30.359c-16.764,0-30.358-13.593-30.358-30.359      c0-16.768,13.594-30.359,30.358-30.359C90.516,39.655,104.106,53.246,104.106,70.014z" fill="url(#SVGID_1_)"/><linearGradient gradientUnits="userSpaceOnUse" id="SVGID_2_" x1="70.3832" x2="96.301" y1="65.9566" y2="89.0723"><stop offset="0" style="stop-color:#FAD238"/><stop offset="1" style="stop-color:#FCF79D"/></linearGradient><path d="M97.825,54.412c1.909,3.972,2.976,8.422,2.976,13.123c0,16.767-13.591,30.358-30.358,30.358      c-1.749,0-3.461-0.155-5.13-0.439c2.667,0.821,5.5,1.267,8.433,1.267c15.83,0,28.709-12.878,28.709-28.706      C102.455,64.264,100.749,58.909,97.825,54.412z" fill="url(#SVGID_2_)"/><linearGradient gradientUnits="userSpaceOnUse" id="SVGID_3_" x1="53.3858" x2="74.0246" y1="51.2898" y2="72.4397"><stop offset="0" style="stop-color:#FCF79D"/><stop offset="1" style="stop-color:#FAD238"/></linearGradient><path d="M78.409,61.702c0,8.209-6.652,14.864-14.861,14.864c-8.212,0-14.867-6.655-14.867-14.864      s6.655-14.864,14.867-14.864C71.758,46.839,78.409,53.493,78.409,61.702z" fill="url(#SVGID_3_)"/><g><radialGradient cx="72.9839" cy="70.528" gradientUnits="userSpaceOnUse" id="SVGID_4_" r="62.7155"><stop offset="0.3515" style="stop-color:#FAD238"/><stop offset="1" style="stop-color:#FCF79D"/></radialGradient><path d="M73.746,36.349c1.306,0,2.588,0.083,3.855,0.227L73.746,8.796l-3.851,27.781       C71.161,36.432,72.443,36.349,73.746,36.349z" fill="url(#SVGID_4_)"/><radialGradient cx="72.9839" cy="70.528" gradientUnits="userSpaceOnUse" id="SVGID_5_" r="62.7169"><stop offset="0.3515" style="stop-color:#FAD238"/><stop offset="1" style="stop-color:#FCF79D"/></radialGradient><path d="M73.746,103.677c-1.303,0-2.585-0.082-3.851-0.227l3.851,27.782l3.855-27.782       C76.334,103.596,75.052,103.677,73.746,103.677z" fill="url(#SVGID_5_)"/></g><g><radialGradient cx="72.9823" cy="70.529" gradientUnits="userSpaceOnUse" id="SVGID_6_" r="62.7164"><stop offset="0.3515" style="stop-color:#FAD238"/><stop offset="1" style="stop-color:#FCF79D"/></radialGradient><path d="M68.767,36.721l-8.082-15.464l0.73,17.443C63.749,37.777,66.213,37.102,68.767,36.721z" fill="url(#SVGID_6_)"/><radialGradient cx="72.9819" cy="70.5269" gradientUnits="userSpaceOnUse" id="SVGID_7_" r="62.7203"><stop offset="0.3515" style="stop-color:#FAD238"/><stop offset="1" style="stop-color:#FCF79D"/></radialGradient><path d="M78.728,103.308l8.085,15.464l-0.73-17.444C83.743,102.25,81.285,102.926,78.728,103.308z" fill="url(#SVGID_7_)"/></g><g><radialGradient cx="88.7042" cy="-272.5795" gradientTransform="matrix(0.866 -0.5 0.5 0.866 132.8165 351.2479)" gradientUnits="userSpaceOnUse" id="SVGID_8_" r="62.7177"><stop offset="0.3515" style="stop-color:#FAD238"/><stop offset="1" style="stop-color:#FCF79D"/></radialGradient><path d="M56.916,40.861c1.13-0.653,2.282-1.223,3.451-1.73L43.14,16.996l10.552,25.986       C54.716,42.225,55.785,41.512,56.916,40.861z" fill="url(#SVGID_8_)"/><radialGradient cx="88.7029" cy="-272.5801" gradientTransform="matrix(0.866 -0.5 0.5 0.866 132.8165 351.2479)" gradientUnits="userSpaceOnUse" id="SVGID_9_" r="62.7154"><stop offset="0.3515" style="stop-color:#FAD238"/><stop offset="1" style="stop-color:#FCF79D"/></radialGradient><path d="M90.579,99.168c-1.127,0.651-2.282,1.221-3.451,1.729l17.227,22.132L93.803,97.044       C92.779,97.802,91.71,98.515,90.579,99.168z" fill="url(#SVGID_9_)"/></g><g><radialGradient cx="88.7045" cy="-272.5793" gradientTransform="matrix(0.866 -0.5 0.5 0.866 132.8165 351.2479)" gradientUnits="userSpaceOnUse" id="SVGID_10_" r="62.72"><stop offset="0.3515" style="stop-color:#FAD238"/><stop offset="1" style="stop-color:#FCF79D"/></radialGradient><path d="M52.788,43.671l-14.733-9.35l9.355,14.741C48.97,47.093,50.764,45.279,52.788,43.671z" fill="url(#SVGID_10_)"/><radialGradient cx="88.7014" cy="-272.5793" gradientTransform="matrix(0.866 -0.5 0.5 0.866 132.8165 351.2479)" gradientUnits="userSpaceOnUse" id="SVGID_11_" r="62.7177"><stop offset="0.3515" style="stop-color:#FAD238"/><stop offset="1" style="stop-color:#FCF79D"/></radialGradient><path d="M94.707,96.356l14.733,9.35l-9.354-14.74C98.522,92.933,96.731,94.749,94.707,96.356z" fill="url(#SVGID_11_)"/></g><g><radialGradient cx="274.1371" cy="-562.3526" gradientTransform="matrix(0.5 -0.866 0.866 0.5 423.7426 589.5143)" gradientUnits="userSpaceOnUse" id="SVGID_12_" r="62.7217"><stop offset="0.3515" style="stop-color:#FAD238"/><stop offset="1" style="stop-color:#FCF79D"/></radialGradient><path d="M44.594,53.182c0.651-1.13,1.364-2.2,2.124-3.223L20.731,39.404l22.133,17.228       C43.37,55.464,43.943,54.311,44.594,53.182z" fill="url(#SVGID_12_)"/><radialGradient cx="274.1389" cy="-562.3554" gradientTransform="matrix(0.5 -0.866 0.866 0.5 423.7426 589.5143)" gradientUnits="userSpaceOnUse" id="SVGID_13_" r="62.7171"><stop offset="0.3515" style="stop-color:#FAD238"/><stop offset="1" style="stop-color:#FCF79D"/></radialGradient><path d="M102.904,86.846c-0.655,1.13-1.367,2.2-2.124,3.223l25.985,10.554l-22.133-17.227       C104.125,84.563,103.555,85.717,102.904,86.846z" fill="url(#SVGID_13_)"/></g><g><radialGradient cx="274.1382" cy="-562.3585" gradientTransform="matrix(0.5 -0.866 0.866 0.5 423.7426 589.5143)" gradientUnits="userSpaceOnUse" id="SVGID_14_" r="62.7142"><stop offset="0.3515" style="stop-color:#FAD238"/><stop offset="1" style="stop-color:#FCF79D"/></radialGradient><path d="M42.425,57.68l-17.433-0.73l15.47,8.089C40.831,62.553,41.476,60.085,42.425,57.68z" fill="url(#SVGID_14_)"/><radialGradient cx="274.1377" cy="-562.3542" gradientTransform="matrix(0.5 -0.866 0.866 0.5 423.7426 589.5143)" gradientUnits="userSpaceOnUse" id="SVGID_15_" r="62.7143"><stop offset="0.3515" style="stop-color:#FAD238"/><stop offset="1" style="stop-color:#FCF79D"/></radialGradient><path d="M105.07,82.347l17.433,0.731l-15.47-8.089C106.664,77.474,106.019,79.943,105.07,82.347z" fill="url(#SVGID_15_)"/></g><g><radialGradient cx="579.0574" cy="-720.5615" gradientTransform="matrix(0 -1 1 0 794.8259 649.8359)" gradientUnits="userSpaceOnUse" id="SVGID_16_" r="62.7169"><stop offset="0.3515" style="stop-color:#FAD238"/><stop offset="1" style="stop-color:#FCF79D"/></radialGradient><path d="M40.085,70.013c0-1.304,0.082-2.587,0.227-3.853l-27.782,3.853l27.782,3.854       C40.167,72.601,40.085,71.318,40.085,70.013z" fill="url(#SVGID_16_)"/><radialGradient cx="579.0569" cy="-720.5593" gradientTransform="matrix(0 -1 1 0 794.8259 649.8359)" gradientUnits="userSpaceOnUse" id="SVGID_17_" r="62.7103"><stop offset="0.3515" style="stop-color:#FAD238"/><stop offset="1" style="stop-color:#FCF79D"/></radialGradient><path d="M107.41,70.014c0.003,1.304-0.079,2.587-0.224,3.853l27.779-3.853l-27.779-3.853       C107.331,67.426,107.413,68.71,107.41,70.014z" fill="url(#SVGID_17_)"/></g><g><radialGradient cx="579.0574" cy="-720.5615" gradientTransform="matrix(0 -1 1 0 794.8259 649.8359)" gradientUnits="userSpaceOnUse" id="SVGID_18_" r="62.7194"><stop offset="0.3515" style="stop-color:#FAD238"/><stop offset="1" style="stop-color:#FCF79D"/></radialGradient><path d="M40.455,74.994l-15.464,8.083l17.442-0.73C41.509,80.011,40.837,77.55,40.455,74.994z" fill="url(#SVGID_18_)"/><radialGradient cx="579.059" cy="-720.5648" gradientTransform="matrix(0 -1 1 0 794.8259 649.8359)" gradientUnits="userSpaceOnUse" id="SVGID_19_" r="62.7162"><stop offset="0.3515" style="stop-color:#FAD238"/><stop offset="1" style="stop-color:#FCF79D"/></radialGradient><path d="M107.04,65.033l15.464-8.083l-17.442,0.73C105.985,60.017,106.661,62.477,107.04,65.033z" fill="url(#SVGID_19_)"/></g><g><radialGradient cx="922.546" cy="-704.6454" gradientTransform="matrix(-0.5 -0.866 0.866 -0.5 1146.0736 517.0182)" gradientUnits="userSpaceOnUse" id="SVGID_20_" r="62.7203"><stop offset="0.3515" style="stop-color:#FAD238"/><stop offset="1" style="stop-color:#FCF79D"/></radialGradient><path d="M44.594,86.845c-0.651-1.129-1.224-2.282-1.73-3.45l-22.133,17.228l25.988-10.554       C45.958,89.046,45.246,87.975,44.594,86.845z" fill="url(#SVGID_20_)"/><radialGradient cx="922.5461" cy="-704.6519" gradientTransform="matrix(-0.5 -0.866 0.866 -0.5 1146.0736 517.0182)" gradientUnits="userSpaceOnUse" id="SVGID_21_" r="62.7223"><stop offset="0.3515" style="stop-color:#FAD238"/><stop offset="1" style="stop-color:#FCF79D"/></radialGradient><path d="M102.904,53.182c0.651,1.129,1.221,2.282,1.727,3.449l22.133-17.227l-25.988,10.555       C101.537,50.982,102.252,52.052,102.904,53.182z" fill="url(#SVGID_21_)"/></g><g><radialGradient cx="922.5475" cy="-704.6472" gradientTransform="matrix(-0.5 -0.866 0.866 -0.5 1146.0736 517.0182)" gradientUnits="userSpaceOnUse" id="SVGID_22_" r="62.72"><stop offset="0.3515" style="stop-color:#FAD238"/><stop offset="1" style="stop-color:#FCF79D"/></radialGradient><path d="M47.404,90.974l-9.348,14.731l14.739-9.353C50.828,94.79,49.013,92.996,47.404,90.974z" fill="url(#SVGID_22_)"/><radialGradient cx="922.5446" cy="-704.6476" gradientTransform="matrix(-0.5 -0.866 0.866 -0.5 1146.0736 517.0182)" gradientUnits="userSpaceOnUse" id="SVGID_23_" r="62.7181"><stop offset="0.3515" style="stop-color:#FAD238"/><stop offset="1" style="stop-color:#FCF79D"/></radialGradient><path d="M100.091,49.053l9.348-14.732L94.7,43.676C96.667,45.239,98.482,47.031,100.091,49.053z" fill="url(#SVGID_23_)"/></g><g><radialGradient cx="1212.3" cy="-519.6381" gradientTransform="matrix(-0.866 -0.5 0.5 -0.866 1384.3395 226.0924)" gradientUnits="userSpaceOnUse" id="SVGID_24_" r="62.7181"><stop offset="0.3515" style="stop-color:#FAD238"/><stop offset="1" style="stop-color:#FCF79D"/></radialGradient><path d="M56.916,99.165c-1.13-0.65-2.2-1.364-3.224-2.121L43.14,123.029l17.227-22.133       C59.197,100.39,58.046,99.82,56.916,99.165z" fill="url(#SVGID_24_)"/><radialGradient cx="1212.3005" cy="-519.642" gradientTransform="matrix(-0.866 -0.5 0.5 -0.866 1384.3395 226.0924)" gradientUnits="userSpaceOnUse" id="SVGID_25_" r="62.7196"><stop offset="0.3515" style="stop-color:#FAD238"/><stop offset="1" style="stop-color:#FCF79D"/></radialGradient><path d="M90.579,40.859c1.13,0.652,2.2,1.366,3.224,2.124l10.552-25.986L87.128,39.131       C88.297,39.637,89.452,40.207,90.579,40.859z" fill="url(#SVGID_25_)"/></g><g><radialGradient cx="1212.2997" cy="-519.6408" gradientTransform="matrix(-0.866 -0.5 0.5 -0.866 1384.3395 226.0924)" gradientUnits="userSpaceOnUse" id="SVGID_26_" r="62.7149"><stop offset="0.3515" style="stop-color:#FAD238"/><stop offset="1" style="stop-color:#FCF79D"/></radialGradient><path d="M61.416,101.338l-0.73,17.43l8.085-15.47C66.288,102.932,63.819,102.284,61.416,101.338z" fill="url(#SVGID_26_)"/><radialGradient cx="1212.3" cy="-519.6433" gradientTransform="matrix(-0.866 -0.5 0.5 -0.866 1384.3395 226.0924)" gradientUnits="userSpaceOnUse" id="SVGID_27_" r="62.7213"><stop offset="0.3515" style="stop-color:#FAD238"/><stop offset="1" style="stop-color:#FCF79D"/></radialGradient><path d="M86.082,38.69l0.73-17.433l-8.091,15.47C81.21,37.097,83.679,37.743,86.082,38.69z" fill="url(#SVGID_27_)"/></g></g><g><g><path d="M122.952,170.032c-11.691,0-22.724-6.479-27.712-15.562c-2.794,1.295-5.852,1.962-9.067,1.962       c-10.167,0-20.415-6.852-24.364-16.291c-2.918-6.973-2.112-14.33,2.133-20.845c-11.097-7.351-13.37-18.457-11.645-26.464       c2.306-10.704,11.324-17.895,22.439-17.895c0.279,0,0.561,0.005,0.839,0.014c-0.4-6.714,2.003-11.789,4.449-15.147       c5.309-7.284,15.124-11.991,25.006-11.991c3.509,0,6.842,0.604,9.824,1.751c4.039-12.876,17.161-18.728,29.918-18.728       c12.573,0,25.797,5.696,30.548,16.664c3.079-1.342,6.491-2.036,10.109-2.036c10.012,0,19.894,5.292,25.176,13.481       c3.167,4.908,4.424,10.424,3.742,16.059c0.573-0.039,1.143-0.059,1.712-0.059c9.173,0,17.721,5.324,22.87,14.241       c5.561,9.632,6.052,21.229,1.251,29.547c-3.618,6.264-9.915,10.248-18.051,11.536c1.133,4.33,0.648,8.908-1.506,13.239       c-4.17,8.391-14.052,14.485-23.491,14.485c-2.558,0-5.012-0.433-7.297-1.276c-0.651,1.139-1.473,2.261-2.467,3.352       c-5.455,6.015-14.767,9.903-23.718,9.903c-5.5,0-13.082-1.421-19.964-7.63C136.161,168.605,128.431,170.032,122.952,170.032z" fill="#81BAE8"/><linearGradient gradientUnits="userSpaceOnUse" id="SVGID_28_" x1="105.809" x2="181.1197" y1="25.5308" y2="176.1519"><stop offset="0" style="stop-color:#D6EEF8"/><stop offset="0.2851" style="stop-color:#D2ECF7"/><stop offset="0.5511" style="stop-color:#C7E5F6"/><stop offset="0.8087" style="stop-color:#B4DAF3"/><stop offset="1" style="stop-color:#A1CFF0"/></linearGradient><path d="M207.779,81.242c10.342-22.852-20.206-39.692-35.361-26.461       c-2.251-24.681-52.794-27.478-54.139,2.142c-13.136-11.45-44.473,0.136-36.912,23.61       c-24.942-6.884-35.946,25.793-10.324,37.365C51.685,137.541,81.6,161.79,97.494,147.447       c3.327,14.997,28.703,27.152,46.361,8.345c16.218,19.582,44.145,4.585,43.109-6.018c14.179,11.682,40.082-7.758,27.988-23.721       C255.41,127.188,238.57,69.215,207.779,81.242z" fill="url(#SVGID_28_)"/></g><linearGradient gradientUnits="userSpaceOnUse" id="SVGID_29_" x1="108.9212" x2="140.7407" y1="51.0801" y2="109.4161"><stop offset="0" style="stop-color:#FFFFFF"/><stop offset="1" style="stop-color:#D6EEF8"/></linearGradient><path d="M100.955,111.935c5.285-33.328,34.703-14.776,34.703-14.776s5.755-30.59,33.315-11.443      c-31.182-5.675-30.279,16.737-30.279,16.737S113.831,89.655,100.955,111.935z" fill="url(#SVGID_29_)"/><path d="M101.822,136.856c19.252,13.576,27.997-1.552,29.264-8.515c20.582,24.612,35.321,0.176,39.006-4.285      c21.527,16.097,32.194-2.715,35.297-8.339c0.97,6.788-8.903,30.221-33.921,12.573c-3.509,10.312-22.709,24.858-39.776,6.045      C130.722,140.347,118.503,156.638,101.822,136.856z" fill="#A1CFF0"/><linearGradient gradientUnits="userSpaceOnUse" id="SVGID_30_" x1="110.5689" x2="155.5085" y1="37.707" y2="114.8923"><stop offset="0" style="stop-color:#FFFFFF"/><stop offset="1" style="stop-color:#D6EEF8"/></linearGradient><path d="M204.507,83.88c6.77-22.371-13.603-36.175-33.967-24.733      c-2.764-13.873-12.448-20.255-24.949-20.683c-11.536-0.395-24.245,8.163-25.603,21.868c-15.515-9.571-33.188-0.876-36.106,7.093      c-2.642,7.217,0.906,15.652,0.906,15.652s-11.467-3.462-18.843,1.157c-6.176,3.869-9.397,15.747-1.448,26.108      c-9.282-30.086,21.36-26.237,21.36-26.237s-3.048-11.798,6.336-20.04c5.439-4.776,16.249-6.899,28.633-2.361      c13.703-31.159,44.739-16.386,48.488,0.68c23.667-9.598,38.797,5.186,33.561,23.028c16.358-2.852,27.536,6.024,30.827,15.212      C234.479,94.256,224.676,79.352,204.507,83.88z" fill="url(#SVGID_30_)"/></g></g></g></svg>