<?xml version="1.0" ?><!DOCTYPE svg  PUBLIC '-//W3C//DTD SVG 1.1//EN'  'http://www.w3.org/Graphics/SVG/1.1/DTD/svg11.dtd'><svg enable-background="new 0 0 256 256" height="256px" id="Layer_1" version="1.1" viewBox="0 0 256 256" width="256px" xml:space="preserve" xmlns="http://www.w3.org/2000/svg" xmlns:xlink="http://www.w3.org/1999/xlink"><g><g><g><g><g><path d="M103.326,170.031c-11.689,0-22.723-6.479-27.712-15.564c-2.792,1.294-5.852,1.964-9.065,1.964        c-10.168,0-20.415-6.851-24.365-16.291c-2.918-6.973-2.112-14.33,2.135-20.846c-11.097-7.351-13.37-18.457-11.646-26.464        c2.305-10.706,11.323-17.897,22.439-17.897c0.279,0,0.559,0.006,0.839,0.015c-0.4-6.716,2.003-11.792,4.449-15.149        c5.308-7.283,15.123-11.991,25.005-11.991c3.511,0,6.844,0.605,9.824,1.752c4.041-12.876,17.162-18.727,29.918-18.727        c12.574,0,25.797,5.695,30.548,16.664c3.08-1.343,6.491-2.036,10.109-2.036c10.012,0,19.894,5.292,25.176,13.482        c3.167,4.909,4.424,10.424,3.742,16.058c0.573-0.039,1.144-0.058,1.714-0.058c9.171,0,17.721,5.324,22.87,14.239        c5.561,9.633,6.052,21.23,1.25,29.549c-3.617,6.264-9.914,10.248-18.05,11.536c1.132,4.33,0.647,8.906-1.506,13.239        c-4.171,8.391-14.051,14.482-23.492,14.482c-2.556,0-5.012-0.43-7.295-1.273c-0.652,1.136-1.474,2.258-2.467,3.351        c-5.456,6.015-14.767,9.903-23.718,9.903c-5.5,0-13.083-1.424-19.964-7.633C116.535,168.604,108.806,170.031,103.326,170.031z        " fill="#7EAEC6"/><linearGradient gradientUnits="userSpaceOnUse" id="SVGID_1_" x1="86.1831" x2="161.4937" y1="25.5291" y2="176.1499"><stop offset="0" style="stop-color:#CBDFE8"/><stop offset="0.2391" style="stop-color:#C7DDE6"/><stop offset="0.4622" style="stop-color:#BCD5E1"/><stop offset="0.6789" style="stop-color:#A9C9D9"/><stop offset="0.8904" style="stop-color:#8FB9CD"/><stop offset="1" style="stop-color:#7EAEC6"/></linearGradient><path d="M188.153,81.24c10.344-22.852-20.206-39.692-35.361-26.461        c-2.25-24.68-52.792-27.477-54.139,2.142c-13.136-11.45-44.473,0.136-36.912,23.61c-24.941-6.882-35.946,25.794-10.324,37.367        c-19.358,19.642,10.559,43.891,26.451,29.548c3.329,14.997,28.703,27.152,46.362,8.345        c16.217,19.582,44.144,4.582,43.109-6.018c14.177,11.679,40.08-7.758,27.986-23.721        C235.783,127.186,218.945,69.212,188.153,81.24z" fill="url(#SVGID_1_)"/></g><linearGradient gradientTransform="matrix(0.9806 -0.196 0.196 0.9806 27.8173 190.4809)" gradientUnits="userSpaceOnUse" id="SVGID_2_" x1="71.9634" x2="116.9053" y1="-127.3849" y2="-50.1958"><stop offset="0" style="stop-color:#FFFFFF"/><stop offset="1" style="stop-color:#D1E3EB"/></linearGradient><path d="M81.33,111.934c5.285-33.327,34.703-14.776,34.703-14.776s5.753-30.592,33.314-11.442       c-31.182-5.676-30.277,16.736-30.277,16.736S94.205,89.652,81.33,111.934z" fill="url(#SVGID_2_)"/><path d="M82.197,136.855c19.252,13.576,27.996-1.552,29.262-8.515c20.583,24.612,35.323,0.176,39.008-4.285       c21.527,16.097,32.194-2.715,35.297-8.339c0.97,6.788-8.905,30.221-33.923,12.573c-3.508,10.312-22.708,24.858-39.774,6.045       C111.097,140.346,98.879,156.637,82.197,136.855z" fill="#7EAEC6"/><linearGradient gradientUnits="userSpaceOnUse" id="SVGID_3_" x1="90.9434" x2="135.8832" y1="37.7064" y2="114.8918"><stop offset="0" style="stop-color:#FFFFFF"/><stop offset="1" style="stop-color:#D1E3EB"/></linearGradient><path d="M184.88,83.88c6.77-22.372-13.602-36.177-33.965-24.734       c-2.765-13.873-12.449-20.255-24.95-20.683c-11.535-0.395-24.246,8.162-25.603,21.868c-15.514-9.571-33.186-0.876-36.105,7.094       c-2.642,7.216,0.905,15.652,0.905,15.652s-11.465-3.464-18.841,1.154c-6.177,3.87-9.398,15.748-1.45,26.109       c-9.282-30.085,21.361-26.236,21.361-26.236s-3.048-11.8,6.338-20.042c5.439-4.776,16.248-6.899,28.632-2.362       c13.705-31.158,44.739-16.385,48.489,0.682c23.665-9.6,38.797,5.185,33.561,23.028c16.358-2.852,27.536,6.024,30.827,15.212       C214.855,94.256,205.05,79.349,184.88,83.88z" fill="url(#SVGID_3_)"/></g><g><path d="M79.653,169.065c-1.317,5.673-11.427,5.758-12.418,12.467c-0.964,6.47,7.55,9.342,11.671,4.618       C83.12,181.328,81.353,174.483,79.653,169.065z" fill="#4F95C5"/><radialGradient cx="72.1461" cy="179.4342" gradientUnits="userSpaceOnUse" id="SVGID_4_" r="9.4"><stop offset="0" style="stop-color:#FFFFFF"/><stop offset="0.1324" style="stop-color:#EFF5FA"/><stop offset="0.3911" style="stop-color:#C5DCEC"/><stop offset="0.7472" style="stop-color:#82B4D6"/><stop offset="1" style="stop-color:#4F95C5"/></radialGradient><path d="M73.699,186.94c-1.582,0-3.079-0.646-4.009-1.721c-0.8-0.93-1.118-2.127-0.92-3.461       c0.411-2.782,3.014-4.224,5.768-5.749c1.647-0.915,3.327-1.845,4.608-3.103c1.114,4.412,1.468,8.93-1.408,12.224       C76.72,186.298,75.285,186.94,73.699,186.94L73.699,186.94z" fill="url(#SVGID_4_)"/><path d="M72.261,178.777c3.006-0.194,2.667,4.382,0.243,4.382C69.545,183.159,69.255,178.971,72.261,178.777z" fill="#FFFFFF"/></g><g><path d="M126.199,169.065c-1.317,5.673-11.427,5.758-12.418,12.467c-0.964,6.47,7.55,9.342,11.671,4.618       C129.665,181.328,127.899,174.483,126.199,169.065z" fill="#4F95C5"/><radialGradient cx="118.6915" cy="179.4342" gradientUnits="userSpaceOnUse" id="SVGID_5_" r="9.4"><stop offset="0" style="stop-color:#FFFFFF"/><stop offset="0.1324" style="stop-color:#EFF5FA"/><stop offset="0.3911" style="stop-color:#C5DCEC"/><stop offset="0.7472" style="stop-color:#82B4D6"/><stop offset="1" style="stop-color:#4F95C5"/></radialGradient><path d="M120.244,186.94c-1.582,0-3.079-0.646-4.009-1.721c-0.8-0.93-1.118-2.127-0.92-3.461       c0.411-2.782,3.014-4.224,5.768-5.749c1.647-0.915,3.327-1.845,4.608-3.103c1.114,4.412,1.468,8.93-1.408,12.224       C123.265,186.298,121.83,186.94,120.244,186.94L120.244,186.94z" fill="url(#SVGID_5_)"/><path d="M118.806,178.777c3.006-0.194,2.667,4.382,0.243,4.382C116.091,183.159,115.8,178.971,118.806,178.777z       " fill="#FFFFFF"/></g><g><path d="M172.744,169.065c-1.317,5.673-11.427,5.758-12.418,12.467c-0.964,6.47,7.55,9.342,11.671,4.618       C176.211,181.328,174.444,174.483,172.744,169.065z" fill="#4F95C5"/><radialGradient cx="165.237" cy="179.4342" gradientUnits="userSpaceOnUse" id="SVGID_6_" r="9.4"><stop offset="0" style="stop-color:#FFFFFF"/><stop offset="0.1324" style="stop-color:#EFF5FA"/><stop offset="0.3911" style="stop-color:#C5DCEC"/><stop offset="0.7472" style="stop-color:#82B4D6"/><stop offset="1" style="stop-color:#4F95C5"/></radialGradient><path d="M166.789,186.94c-1.582,0-3.079-0.646-4.009-1.721c-0.8-0.93-1.118-2.127-0.92-3.461       c0.411-2.782,3.014-4.224,5.768-5.749c1.647-0.915,3.327-1.845,4.608-3.103c1.114,4.412,1.468,8.93-1.408,12.224       C169.811,186.298,168.376,186.94,166.789,186.94L166.789,186.94z" fill="url(#SVGID_6_)"/><path d="M165.351,178.777c3.006-0.194,2.667,4.382,0.242,4.382       C162.636,183.159,162.345,178.971,165.351,178.777z" fill="#FFFFFF"/></g><g><path d="M101.374,186.131c-1.317,5.673-11.427,5.758-12.418,12.467c-0.964,6.47,7.55,9.342,11.671,4.618       C104.841,198.395,103.074,191.549,101.374,186.131z" fill="#4F95C5"/><radialGradient cx="93.8673" cy="196.5009" gradientUnits="userSpaceOnUse" id="SVGID_7_" r="9.4"><stop offset="0" style="stop-color:#FFFFFF"/><stop offset="0.1324" style="stop-color:#EFF5FA"/><stop offset="0.3911" style="stop-color:#C5DCEC"/><stop offset="0.7472" style="stop-color:#82B4D6"/><stop offset="1" style="stop-color:#4F95C5"/></radialGradient><path d="M95.42,204.007c-1.582,0-3.079-0.646-4.009-1.721c-0.8-0.93-1.118-2.127-0.92-3.461       c0.411-2.782,3.014-4.224,5.768-5.749c1.647-0.915,3.327-1.845,4.608-3.103c1.114,4.412,1.468,8.93-1.408,12.224       C98.441,203.365,97.006,204.007,95.42,204.007L95.42,204.007z" fill="url(#SVGID_7_)"/><path d="M93.982,195.843c3.006-0.194,2.667,4.382,0.243,4.382C91.267,200.225,90.976,196.037,93.982,195.843z" fill="#FFFFFF"/></g><g><path d="M147.92,186.131c-1.317,5.673-11.427,5.758-12.418,12.467c-0.964,6.47,7.55,9.342,11.671,4.618       C151.386,198.395,149.62,191.549,147.92,186.131z" fill="#4F95C5"/><radialGradient cx="140.4128" cy="196.5009" gradientUnits="userSpaceOnUse" id="SVGID_8_" r="9.4"><stop offset="0" style="stop-color:#FFFFFF"/><stop offset="0.1324" style="stop-color:#EFF5FA"/><stop offset="0.3911" style="stop-color:#C5DCEC"/><stop offset="0.7472" style="stop-color:#82B4D6"/><stop offset="1" style="stop-color:#4F95C5"/></radialGradient><path d="M141.965,204.007c-1.582,0-3.079-0.646-4.009-1.721c-0.8-0.93-1.118-2.127-0.92-3.461       c0.411-2.782,3.014-4.224,5.768-5.749c1.647-0.915,3.327-1.845,4.608-3.103c1.114,4.412,1.468,8.93-1.408,12.224       C144.986,203.365,143.552,204.007,141.965,204.007L141.965,204.007z" fill="url(#SVGID_8_)"/><path d="M140.527,195.843c3.006-0.194,2.667,4.382,0.243,4.382       C137.812,200.225,137.521,196.037,140.527,195.843z" fill="#FFFFFF"/></g><g><path d="M123.095,203.198c-1.317,5.673-11.427,5.758-12.418,12.467c-0.964,6.47,7.55,9.342,11.671,4.618       C126.562,215.462,124.795,208.616,123.095,203.198z" fill="#4F95C5"/><radialGradient cx="115.5885" cy="213.5676" gradientUnits="userSpaceOnUse" id="SVGID_9_" r="9.4"><stop offset="0" style="stop-color:#FFFFFF"/><stop offset="0.1324" style="stop-color:#EFF5FA"/><stop offset="0.3911" style="stop-color:#C5DCEC"/><stop offset="0.7472" style="stop-color:#82B4D6"/><stop offset="1" style="stop-color:#4F95C5"/></radialGradient><path d="M117.141,221.074c-1.582,0-3.079-0.646-4.009-1.721c-0.8-0.93-1.118-2.127-0.92-3.461       c0.411-2.782,3.014-4.224,5.768-5.749c1.647-0.915,3.327-1.845,4.608-3.103c1.114,4.412,1.468,8.93-1.408,12.224       C120.162,220.431,118.727,221.074,117.141,221.074L117.141,221.074z" fill="url(#SVGID_9_)"/><path d="M115.703,212.91c3.006-0.194,2.667,4.382,0.243,4.382C112.988,217.292,112.697,213.104,115.703,212.91z       " fill="#FFFFFF"/></g></g></g></g></svg>